<svg role="img" viewBox="0 0 100 100" xmlns="http://www.w3.org/2000/svg" id="Springsecurity--Streamline-Simple-Icons" height="100" width="100">
  <desc>
    Springsecurity Streamline Icon: https://streamlinehq.com
  </desc>
  <title>Spring Security</title>
  <path d="M85.79166666666667 8.608333333333333 49.97083333333334 0 14.208333333333336 8.608333333333333v27.55h18.987500000000004a15.85 15.85 0 0 0 0 3.975H14.208333333333336v12.941666666666666C14.208333333333336 82.77916666666668 49.975 100 49.975 100s35.75833333333334 -17.220833333333335 35.75833333333334 -46.90833333333333V40.145833333333336h-18.9375a15.066666666666668 15.066666666666668 0 0 0 0 -3.975h18.991666666666667zM50 51.091666666666676h-0.025a12.954166666666667 12.954166666666667 0 1 1 0.025 0zm-0.025 -19.079166666666666a3.3500000000000005 3.3500000000000005 0 0 0 -1.5416666666666667 6.333333333333334v0.8666666666666667l0.9916666666666667 0.9875v0.6625000000000001l0.6625000000000001 0.6625000000000001v0.6625000000000001l-0.5833333333333335 0.5833333333333335 0.625 1.0250000000000001v0.6625000000000001l-0.6666666666666667 0.7875000000000001 0.9291666666666667 0.925 1.0250000000000001 -1.0250000000000001V38.40833333333334a3.3500000000000005 3.3500000000000005 0 0 0 -1.4416666666666667 -6.395833333333333zm0 3.4833333333333334a1.2458333333333333 1.2458333333333333 0 1 1 1.2416666666666667 -1.2458333333333333 1.2458333333333333 1.2458333333333333 0 0 1 -1.2416666666666667 1.25z" fill="#000000" stroke-width="4.1667"></path>
</svg>